<svg xmlns="http://www.w3.org/2000/svg" width="109" height="73.758" viewBox="0 0 109 73.758"><g transform="translate(0 -82.769)"><g transform="translate(0 82.769)"><path d="M83.863,115.722c0-19.906-20.983-32.953-41.932-32.953C20.9,82.769,0,95.878,0,115.722c0,7.508,3.288,14.849,9.259,20.673a.9.9,0,0,1,.228.883c-1.875,6.87-6.317,13.076-8.14,15.426a2.371,2.371,0,0,0,1.871,3.824H3.28c8.919-.222,19.256-2.74,25.647-9.022a.912.912,0,0,1,.858-.232,52.7,52.7,0,0,0,12.148,1.4c21.026,0,41.932-13.1,41.932-32.954ZM30.52,144.165a4.088,4.088,0,0,0-3.833,1.062c-6.39,6.283-16.825,7.711-21.765,8.029a49.749,49.749,0,0,0,7.645-15.138,4.094,4.094,0,0,0-1.079-4.01c-5.427-5.293-8.3-11.651-8.3-18.386,0-16.41,17.378-29.76,38.738-29.76s38.738,13.35,38.738,29.76-17.378,29.76-38.738,29.76A49.528,49.528,0,0,1,30.52,144.165Z" transform="translate(0 -82.769)" fill="#244a8b"/><path d="M351.51,190.172c9.31-4.7,14.867-12.723,14.867-21.45,0-12.333-11.148-22.871-26.509-25.058a1.6,1.6,0,0,0-.45,3.161c13.771,1.96,23.765,11.169,23.765,21.9,0,7.5-4.9,14.45-13.114,18.6a3.947,3.947,0,0,0-2.08,4.339A33.253,33.253,0,0,0,351.751,201c-9.429-1.569-13-6.094-14.133-8.052a3.939,3.939,0,0,0-3.41-1.958h-.129a37.994,37.994,0,0,1-5.269-.365,1.6,1.6,0,1,0-.444,3.162,41.219,41.219,0,0,0,5.713.4h.132a.738.738,0,0,1,.641.361c4.324,7.494,14.265,9.408,18.339,9.883a2.317,2.317,0,0,0,2.221-3.553,31.715,31.715,0,0,1-4.3-9.881.751.751,0,0,1,.4-.824Z" transform="translate(-257.377 -130.688)" fill="#244a8b"/><path d="M59.8,210.733a5.534,5.534,0,1,0,5.534,5.534A5.54,5.54,0,0,0,59.8,210.733Zm0,7.874a2.34,2.34,0,1,1,2.34-2.34A2.343,2.343,0,0,1,59.8,218.607Z" transform="translate(-42.712 -183.491)" fill="#244a8b"/><path d="M133.952,210.733a5.534,5.534,0,1,0,5.534,5.534A5.54,5.54,0,0,0,133.952,210.733Zm0,7.874a2.34,2.34,0,1,1,2.34-2.34A2.343,2.343,0,0,1,133.952,218.607Z" transform="translate(-101.079 -183.491)" fill="#244a8b"/><path d="M208.1,210.733a5.534,5.534,0,1,0,5.534,5.534A5.54,5.54,0,0,0,208.1,210.733Zm0,7.874a2.34,2.34,0,1,1,2.34-2.34A2.343,2.343,0,0,1,208.1,218.607Z" transform="translate(-159.445 -183.491)" fill="#244a8b"/><path d="M282.258,210.733a5.534,5.534,0,1,0,5.534,5.534A5.54,5.54,0,0,0,282.258,210.733Zm0,7.874a2.34,2.34,0,1,1,2.34-2.34A2.343,2.343,0,0,1,282.258,218.607Z" transform="translate(-217.812 -183.491)" fill="#244a8b"/></g></g></svg>