<svg xmlns="http://www.w3.org/2000/svg" width="105.323" height="105.333" viewBox="0 0 105.323 105.333"><g transform="translate(-0.025 0)"><path d="M52.686.01A51.656,51.656,0,0,0,.025,50.478,49.515,49.515,0,0,0,17.579,88.043v15.1A2.194,2.194,0,0,0,20.936,105l12.231-7.64a54.336,54.336,0,0,0,19.52,3.585,51.656,51.656,0,0,0,52.661-50.467A51.656,51.656,0,0,0,52.686.01Z" transform="translate(0 0)" fill="#fff"/><path d="M155.146,171.577a2.194,2.194,0,0,0-2.809-.614L129.517,183.4l-14.2-12.174a2.194,2.194,0,0,0-2.98.114L86.011,197.675a2.194,2.194,0,0,0,2.6,3.476l22.82-12.441,14.21,12.178a2.194,2.194,0,0,0,2.98-.114l26.331-26.331A2.194,2.194,0,0,0,155.146,171.577Z" transform="translate(-67.791 -135.581)" fill="#52a6e7"/></g></svg>